<svg width="149" height="58" fill="none" xmlns="http://www.w3.org/2000/svg">
    <g clip-path="url(#a)">
        <path d="m71.904 25.2-.615 3.693a.534.534 0 0 1-.553.366h-3.073c-.338 0-.6-.229-.553-.488l4.118-20.865a.52.52 0 0 1 .553-.35h4.701a.525.525 0 0 1 .553.35l4.087 20.865c0 .26-.2.488-.538.488h-3.073a.54.54 0 0 1-.553-.366l-.614-3.694a.534.534 0 0 0-.553-.366h-3.304a.541.541 0 0 0-.583.366zm3.84-3.832L74.7 15.08c0-.489-1.03-.489-1.106 0l-1.045 6.288c0 .26.215.474.553.474h2.09c.368 0 .599-.214.553-.474zM85.055 7.555h3.073c.307 0 .568.183.568.412v12.028a.503.503 0 0 0 .553.427h2.49a.51.51 0 0 0 .568-.427V7.967c0-.229.246-.412.553-.412h3.073c.307 0 .553.183.553.412v20.88c0 .23-.246.412-.553.412H92.86c-.307 0-.553-.183-.553-.412v-4.884c0-.244-.246-.427-.569-.427H89.25a.497.497 0 0 0-.493.244.486.486 0 0 0-.06.183v4.9c0 .229-.26.412-.568.412h-3.073c-.307 0-.568-.183-.568-.412V7.966c0-.229.291-.412.568-.412zM108.101 18.072l-2.136-2.748c-.291-.381-1.044-.229-1.044.214v13.31a.494.494 0 0 1-.36.414.492.492 0 0 1-.193.013h-2.874c-.307 0-.568-.183-.568-.427V7.983c0-.23.261-.428.568-.428h2.382a.57.57 0 0 1 .476.214l3.749 4.777a.677.677 0 0 0 .968 0l3.733-4.777a.621.621 0 0 1 .492-.214h2.381a.51.51 0 0 1 .554.428v20.864a.495.495 0 0 1-.554.428h-2.873c-.307 0-.568-.183-.568-.427v-13.31c0-.443-.753-.595-1.03-.214l-2.135 2.748a.666.666 0 0 1-.968 0zM127.798 19.628c.276 0 .491-.198.491-.412v-7.464c0-.976-.599-1.526-1.782-1.526-1.198 0-1.798.504-1.798 1.526v4.885a.502.502 0 0 1-.553.427h-3.072a.51.51 0 0 1-.553-.427v-4.885c0-3.052 1.981-4.578 5.945-4.578 3.964 0 5.931 1.526 5.931 4.578v17.095c0 .23-.246.412-.553.412h-2.674a.54.54 0 0 1-.537-.35.624.624 0 0 0-.421-.341.638.638 0 0 0-.532.111 4.63 4.63 0 0 1-2.981.931 3.925 3.925 0 0 1-3.072-1.144 4.122 4.122 0 0 1-1.03-2.824c-.01-3.541 2.387-5.546 7.191-6.014zm.491 3.51c0-.29-.368-.503-.737-.411-1.844.488-2.766 1.358-2.766 2.58 0 .946.277 1.419.83 1.419a2.611 2.611 0 0 0 2.621-1.903c.104-.375.122-.768.052-1.15v-.534zM136.647 7.967c0-.229.246-.412.553-.412h5.823c3.667 0 5.506 1.526 5.516 4.58V24.71c0 3.053-1.936 4.579-5.777 4.579H137.2c-.307 0-.553-.183-.553-.412V7.968zm4.133 3.053v14.683a.495.495 0 0 0 .187.329.486.486 0 0 0 .366.099h1.26c1.198 0 1.798-.489 1.798-1.527V12.027c0-.992-.6-1.526-1.798-1.526h-1.26a.492.492 0 0 0-.553.565v-.046zM79.6 31.747H67.14v19.034h3.073v-6.976a12.451 12.451 0 0 0 6.74-4.408 12.311 12.311 0 0 0 2.602-7.589l.046-.06zm-9.34 8.777v-5.678h5.715a9.548 9.548 0 0 1-2.228 3.464 9.625 9.625 0 0 1-3.487 2.214zM90.924 31.595a12.5 12.5 0 0 0-4.773.934 12.437 12.437 0 0 0-4.047 2.682 12.343 12.343 0 0 0-2.7 4.02 12.277 12.277 0 0 0-.94 4.742h3.073a9.227 9.227 0 0 1 .702-3.576 9.275 9.275 0 0 1 2.034-3.032 9.345 9.345 0 0 1 3.052-2.02 9.395 9.395 0 0 1 3.6-.698v-3.052zM113.048 31.55h-3.103v3.098h3.103v-3.099z" fill="#fff"/>
        <path d="M133.943 37.349a9.004 9.004 0 0 1 4.271-2.427v-3.175a11.98 11.98 0 0 0-6.468 3.404 12.022 12.022 0 0 0-3.272 5.678h-5.286l.584-.534a11.913 11.913 0 0 0 2.732-3.999c.626-1.504.936-3.12.91-4.747a12.496 12.496 0 0 0-7.639 2.584 12.36 12.36 0 0 0-4.438 6.696h-2.227v-4.58h-3.073v4.58h-2.213a11.956 11.956 0 0 0-3.257-5.693 13.336 13.336 0 0 0-2.489-1.939 7.134 7.134 0 0 0-.752-.412 11.133 11.133 0 0 0-1.537-.656l-.83-.23a11.427 11.427 0 0 0-3.165 1.298 13.265 13.265 0 0 0-2.473 1.939 12.056 12.056 0 0 0-3.303 5.693c-.236 1-.354 2.025-.354 3.053h20.419v6.67h3.073v-6.67h29.191v-3.053h-10.601a8.946 8.946 0 0 1 2.197-3.48zm-38.502 0a9.226 9.226 0 0 1 3.442-2.198 9.226 9.226 0 0 1 3.441 2.198 8.999 8.999 0 0 1 2.228 3.495H93.213a8.828 8.828 0 0 1 2.167-3.51l.061.015zm23.476 2.64a9.33 9.33 0 0 1 1.89-2.64 9.22 9.22 0 0 1 2.643-1.847 9.943 9.943 0 0 1-4.609 4.487h.076z" fill="#fff"/>
        <path d="M145.374 40.829V38.02h3.15v-3.098h-3.15v-3.175h-3.119v12.18h5.193L149 40.83h-3.626z" fill="#fff"/>
        <path d="M31.91 43.561c-.067.094-.144.18-.23.26l.23-.26zM31.665 43.805c.085-.078.163-.165.23-.26l-.23.26zm-6.238-6.197-.107.123.292-.29-.185.167zm-.491 8.716.092.137.108.138.092.091-.292-.366z" fill="#FCC604"/>
        <path fill-rule="evenodd" clip-rule="evenodd" d="M29.192 58a6.8 6.8 0 0 1-2.595-.51 6.764 6.764 0 0 1-2.199-1.459l-22.4-22.269a6.693 6.693 0 0 1 0-9.54l22.4-22.253A6.83 6.83 0 0 1 29.2 0c1.8 0 3.526.708 4.802 1.969l22.4 22.254a6.728 6.728 0 0 1 1.477 2.187 6.693 6.693 0 0 1-1.477 7.352L34.077 56.016a6.765 6.765 0 0 1-2.24 1.485 6.8 6.8 0 0 1-2.645.499zM16.009 22.193a2.289 2.289 0 0 1 1.629-.676 2.303 2.303 0 0 1 1.628.676l3.073 3.052c.525.534.96 1.147 1.29 1.816a6.542 6.542 0 0 1 0 5.663 7.019 7.019 0 0 1-1.29 1.817 6.394 6.394 0 0 1-1.828 1.282 6.66 6.66 0 0 1-2.95.64 6.628 6.628 0 0 0 3.165-.64l3.641 3.632a8.06 8.06 0 0 1 .446-.793l.092-.138.17-.229.137-.168.292-.32.292-.29.246-.214a6.672 6.672 0 0 1 7.682-.55h.092l.461.337.246.183.369.335.122.123v.091c.1.09.188.193.262.305l.107.107.108.15c.072.098.143.196.215.308l.276.473c.093.156.17.32.231.489.017.034.036.068.054.101.065.12.13.238.13.357v.091l.139.458c.092.183.092.351.092.534.054.156.101.314.142.473a6.538 6.538 0 0 0-1.372-3.495c.297.359.554.748.769 1.16l8.081-8.028a2.19 2.19 0 0 0 0-3.053l-6.145-6.105a2.25 2.25 0 0 0-2.889-.275 2.202 2.202 0 0 0-.909 1.6 2.185 2.185 0 0 0 .633 1.727l3.072 3.053a2.198 2.198 0 0 1 .659 1.565 2.185 2.185 0 0 1-.658 1.564 2.25 2.25 0 0 1-1.537.656 2.313 2.313 0 0 1-1.536-.61 23.279 23.279 0 0 1-4.395-4.976c-3.334-6.517 5.301-12.592 10.479-7.433l6.237 6.197a6.58 6.58 0 0 1 1.837 3.536 6.554 6.554 0 0 1-1.837 5.759L36.103 45.593a6.335 6.335 0 0 1-.243.395 10.06 10.06 0 0 1-.385.534 4.1 4.1 0 0 1-.223.255l-.115.127-.368.35a3.989 3.989 0 0 1-.492.398l-.123.091a4.204 4.204 0 0 1-.66.397l-.185.107-.353.168-.277.107-.568.183h-.292l-.6.107h-.462a6.39 6.39 0 0 1-1.072 0h-.017a6.389 6.389 0 0 1-2.904-.992c.095.057.191.111.289.163a6.03 6.03 0 0 1-.12-.072l-.23-.137-.108-.077-.169-.122a5.643 5.643 0 0 1-.584-.473l-.184-.168-11.555-11.493a6.137 6.137 0 0 1-1.12-.9L9.91 31.488a2.19 2.19 0 0 1 0-3.053 2.22 2.22 0 0 1 3.073 0l3.072 3.053a2.205 2.205 0 0 0 3.073 0 2.235 2.235 0 0 0-.092-3.053l-3.073-3.052a2.1 2.1 0 0 1 0-2.961l.046-.23zm6.296-6.24 6.247-6.205a2.207 2.207 0 0 1 3.107 0l.01.01a2.172 2.172 0 0 1 0 3.087l-6.246 6.206a2.207 2.207 0 0 1-3.107 0l-.011-.01a2.173 2.173 0 0 1 0-3.087zm2.8 30.6-.108-.138-.092-.137.261.32-.061-.045zM31.91 43.5a2.235 2.235 0 0 1-3.319.27 2.206 2.206 0 0 1-.132-3.064 2.238 2.238 0 0 1 3.078-.251 2.203 2.203 0 0 1 .373 3.046z" fill="#fff"/>
        <path d="m25.612 47.072.215.213.369.26a5.645 5.645 0 0 1-.584-.473zm-1.537-7.632c.134-.273.283-.537.446-.794-.123.255-.256.51-.4.764l-.046.03zm1.737-2.182a6.672 6.672 0 0 1 7.682-.55 6.347 6.347 0 0 0-7.636.519l-.046.03zm8.772.213-.215-.183.37.336-.155-.153z" fill="#FCC604"/>
    </g>
    <defs>
        <clipPath id="a">
            <path fill="#fff" d="M0 0h149v58H0z"/>
        </clipPath>
    </defs>
</svg>
