<svg xmlns="http://www.w3.org/2000/svg" xmlns:xlink="http://www.w3.org/1999/xlink" width="500" height="437" viewBox="0 0 500 437"><defs><style>.a{opacity:0.484;}.b{fill:#8d938c;mix-blend-mode:lighten;isolation:isolate;}.c,.d,.i,.m,.t{opacity:0.5;}.c,.l{fill:url(#a);}.d{fill:url(#b);}.e{fill:url(#d);}.f{fill:#c3c7c3;}.g{fill:#fff;}.h{fill:#071405;}.i,.j,.n,.o,.p,.q,.r{fill:#b2b6b2;}.j{opacity:0.8;}.k{opacity:0.11;}.o{opacity:0.502;}.p{opacity:0.753;}.q{opacity:0.878;}.r{opacity:0.973;}.s{fill:url(#y);}.t{fill:url(#ac);}.u{fill:#111d0f;opacity:0.2;}.v{fill:#0e1b0d;}.w{fill:#182417;}.x{fill:#434c41;}.y{fill:url(#af);}.z{fill:url(#ag);}.aa{fill:#f5f6f5;}.ab{fill:#dcdedc;}.ac{fill:#4a5349;}.ad{fill:#8a918a;}.ae{fill:#c8cbc8;}.af{fill:#bcc0bc;}.ag{fill:url(#ah);}.ah{fill:#747b73;}</style><linearGradient id="a" y1="0.5" x2="1" y2="0.5" gradientUnits="objectBoundingBox"><stop offset="0" stop-color="#656d64"/><stop offset="0.016" stop-color="#676e66"/><stop offset="0.289" stop-color="#878d87"/><stop offset="0.551" stop-color="#9ea39e"/><stop offset="0.794" stop-color="#adb1ad"/><stop offset="1" stop-color="#b2b6b2"/></linearGradient><linearGradient id="b" y1="0.5" x2="1" y2="0.5" gradientUnits="objectBoundingBox"><stop offset="0" stop-color="#b2b6b2"/><stop offset="0.206" stop-color="#adb1ad"/><stop offset="0.449" stop-color="#9ea39e"/><stop offset="0.711" stop-color="#878d87"/><stop offset="0.984" stop-color="#676e66"/><stop offset="1" stop-color="#656d64"/></linearGradient><linearGradient id="d" x1="-0.247" y1="0.5" x2="1.034" y2="0.5" gradientUnits="objectBoundingBox"><stop offset="0" stop-color="#656d64"/><stop offset="0.171" stop-color="#6b736b"/><stop offset="0.422" stop-color="#7f867e"/><stop offset="0.72" stop-color="#9ea49e"/><stop offset="1" stop-color="#c3c7c3"/></linearGradient><linearGradient id="y" x1="7.177" y1="0.5" x2="8.177" y2="0.5" xlink:href="#a"/><linearGradient id="ac" x1="7.177" y1="0.5" x2="8.177" y2="0.5" xlink:href="#a"/><linearGradient id="af" x1="64.056" y1="2.142" x2="65.078" y2="2.142" xlink:href="#a"/><linearGradient id="ag" x1="31.427" y1="1.22" x2="32.415" y2="1.22" xlink:href="#a"/><linearGradient id="ah" x1="18.841" y1="0.735" x2="19.81" y2="0.735" xlink:href="#a"/></defs><g class="a" transform="translate(452.524 3.049)"><path class="b" d="M-241.7,256.924a8.876,8.876,0,0,1-4.374-1.024L-344.4,199.146a3.456,3.456,0,0,1-1.966-2.96c0-1.358.956-2.688,2.623-3.649l97.006-55.994c2.969-1.714,7.331-1.882,9.929-.379l98.324,56.754a3.46,3.46,0,0,1,1.967,2.96c0,1.358-.957,2.688-2.624,3.649l-97.006,55.994A11.363,11.363,0,0,1-241.7,256.924Zm-3.613-2.343c2.1,1.214,5.954,1.04,8.407-.378l97.006-56c1.166-.672,1.862-1.544,1.862-2.332a2.055,2.055,0,0,0-1.2-1.64l-98.324-56.753c-2.1-1.21-5.951-1.036-8.407.378l-97.006,56c-1.166.672-1.862,1.544-1.862,2.332a2.058,2.058,0,0,0,1.2,1.64Z" transform="translate(39.17 50.943)"/><path class="c" d="M-354.01,238.954a.756.756,0,0,1-.66-.383.759.759,0,0,1,.279-1.039l62.112-35.852a.762.762,0,0,1,1.039.279.76.76,0,0,1-.279,1.04L-353.63,238.85A.747.747,0,0,1-354.01,238.954Z" transform="translate(36.068 75.437)"/><path class="d" d="M-168.474,238.752a.76.76,0,0,1-.381-.1L-230.616,203a.763.763,0,0,1-.279-1.04.763.763,0,0,1,1.04-.279l61.761,35.649a.763.763,0,0,1,.279,1.04A.761.761,0,0,1-168.474,238.752Z" transform="translate(81.738 75.437)"/><path class="c" d="M-237.722,334.52a14.451,14.451,0,0,1-7.239-1.938c-25.318-14.673-109.624-63.4-111.646-64.3a.733.733,0,0,1-.487-.933.787.787,0,0,1,.976-.506c1.313.378,110.816,63.781,111.921,64.42a12.98,12.98,0,0,0,12.966,0l111.368-64.532a.762.762,0,0,1,1.042.276.764.764,0,0,1-.277,1.042l-111.369,64.533A14.491,14.491,0,0,1-237.722,334.52Z" transform="translate(35.199 99.416)"/><g transform="translate(-306.942 145.171)"><path class="e" d="M-137.345,149.285v12.063l-104.416,60.27-104.419-60.272V149.283Z" transform="translate(346.181 -89.013)"/><path class="f" d="M-241.761,225.79l-104.419-60.272,104.416-60.27,104.419,60.272Z" transform="translate(346.181 -105.247)"/><path class="g" d="M-241.761,208.336l-103.2-59.568-1.221.7,104.419,60.272,104.416-60.27-1.221-.7Z" transform="translate(346.181 -89.203)"/><g transform="translate(24.105 2.238)"><path class="h" d="M-248.259,208.137l-80.312-46.357,80.31-46.356,80.312,46.357Z" transform="translate(328.573 -103.733)"/><g transform="translate(0)"><path class="d" d="M-248.259,208.138l-80.314-46.358,80.311-46.357,80.314,46.358Z" transform="translate(328.573 -103.733)"/><path class="d" d="M-269.907,106.882l80.314,46.358V164.93l-80.314-46.358Z" transform="translate(350.219 -106.882)"/><path class="d" d="M-248.259,118.571l-80.314,46.357V153.239l80.311-46.357Z" transform="translate(328.573 -106.882)"/><path class="d" d="M-248.259,199.6l-80.314-46.358,80.311-46.357,80.314,46.358Z" transform="translate(328.573 -106.882)"/><path class="i" d="M-261.256,164.266l-32.092-18.524,32.091-18.523,32.092,18.524Z" transform="translate(341.57 -99.385)"/><path class="i" d="M-261.257,128.923l30.615,17.672,1.476-.852-32.092-18.524-32.091,18.523,1.476.852Z" transform="translate(341.57 -99.385)"/><path class="d" d="M-269.906,187.11V198.8l80.311-46.357V140.754Z" transform="translate(350.219 -94.395)"/><path class="d" d="M-328.573,140.753v11.689l80.314,46.358V187.111Z" transform="translate(328.573 -94.396)"/></g><path class="j" d="M-248.259,186.007l-79.208-45.721-1.105.638,80.314,46.358,80.311-46.357-1.105-.638Z" transform="translate(328.573 -94.568)"/></g></g><g transform="translate(-452.524 248.346)"><g class="k" transform="translate(0 40.92)"><path class="l" d="M-356.991,212.352a13.6,13.6,0,0,0-13.588-.007l-80.989,46.64a1.911,1.911,0,0,0,0,3.311l81.662,47.138a12,12,0,0,0,11.992,0l81.788-47.093a1.911,1.911,0,0,0,0-3.312Z" transform="translate(452.524 -210.53)"/></g><g class="k" transform="translate(0 27.28)"><path class="l" d="M-356.991,202.386a13.6,13.6,0,0,0-13.588-.007l-80.989,46.64a1.911,1.911,0,0,0,0,3.311l81.662,47.138a12,12,0,0,0,11.992,0l81.788-47.093a1.911,1.911,0,0,0,0-3.312Z" transform="translate(452.524 -200.564)"/></g><g class="k" transform="translate(0 13.64)"><path class="l" d="M-356.991,192.42a13.6,13.6,0,0,0-13.588-.007l-80.989,46.64a1.911,1.911,0,0,0,0,3.311l81.662,47.138a12,12,0,0,0,11.992,0l81.788-47.093a1.911,1.911,0,0,0,0-3.312Z" transform="translate(452.524 -190.598)"/></g><g class="k"><path class="l" d="M-356.991,182.454a13.6,13.6,0,0,0-13.588-.007l-80.989,46.64a1.911,1.911,0,0,0,0,3.311l81.662,47.138a12,12,0,0,0,11.992,0l81.788-47.093a1.911,1.911,0,0,0,0-3.312Z" transform="translate(452.524 -180.632)"/></g><path class="c" d="M-276.126,229.13l-80.865-46.677a13.6,13.6,0,0,0-13.588-.007l-80.989,46.64a1.89,1.89,0,0,0-.956,1.655v27.425a1.894,1.894,0,0,0,.956,1.656l81.662,47.136a11.993,11.993,0,0,0,11.992,0l81.788-47.093a1.893,1.893,0,0,0,.957-1.656V230.786h0A1.893,1.893,0,0,0-276.126,229.13Z" transform="translate(452.524 -180.632)"/><g class="k"><path class="l" d="M-356.991,182.454a13.6,13.6,0,0,0-13.588-.007l-80.989,46.64a1.911,1.911,0,0,0,0,3.311l81.662,47.138a12,12,0,0,0,11.992,0l81.788-47.093a1.911,1.911,0,0,0,0-3.312Z" transform="translate(452.524 -180.632)"/></g><g class="m" transform="translate(49.112 27.785)"><path class="n" d="M-374.176,201.7a5.77,5.77,0,0,0-5.761,0l-36.286,20.9a.854.854,0,0,0,0,1.478l36.437,21.031a5.352,5.352,0,0,0,5.35,0l36.492-21.012a.853.853,0,0,0,0-1.478Z" transform="translate(416.649 -200.933)"/></g><path class="n" d="M-416.226,223.91l36.286-20.9a5.763,5.763,0,0,1,5.761,0l36.231,20.913c.037.021.051.059.084.083a.84.84,0,0,0-.084-1.395L-374.179,201.7a5.77,5.77,0,0,0-5.761,0l-36.286,20.9a.839.839,0,0,0-.082,1.395C-416.277,223.967-416.263,223.93-416.226,223.91Z" transform="translate(465.764 -173.148)"/><path class="l" d="M-276.126,217.314l-81.788,47.093a11.994,11.994,0,0,1-11.992,0l-81.662-47.136a1.887,1.887,0,0,1-.709-.714,1.914,1.914,0,0,0,.709,2.6l81.662,47.138a12,12,0,0,0,11.992,0l81.788-47.093a1.911,1.911,0,0,0,.709-2.6A1.894,1.894,0,0,1-276.126,217.314Z" transform="translate(452.525 -167.388)"/></g><g transform="translate(-129.88 248.346)"><g class="k" transform="translate(0 40.92)"><path class="l" d="M-121.308,212.352a13.6,13.6,0,0,0-13.59-.007l-80.987,46.64a1.911,1.911,0,0,0,0,3.311l81.662,47.138a12,12,0,0,0,11.992,0l81.788-47.093a1.912,1.912,0,0,0,0-3.312Z" transform="translate(216.841 -210.53)"/></g><g class="k" transform="translate(0 27.28)"><path class="l" d="M-121.308,202.386a13.6,13.6,0,0,0-13.59-.007l-80.987,46.64a1.911,1.911,0,0,0,0,3.311l81.662,47.138a12,12,0,0,0,11.992,0l81.788-47.093a1.913,1.913,0,0,0,0-3.312Z" transform="translate(216.841 -200.564)"/></g><g class="k" transform="translate(0 13.64)"><path class="l" d="M-121.308,192.42a13.6,13.6,0,0,0-13.59-.007l-80.987,46.64a1.911,1.911,0,0,0,0,3.311l81.662,47.138a12,12,0,0,0,11.992,0l81.788-47.093a1.913,1.913,0,0,0,0-3.312Z" transform="translate(216.841 -190.598)"/></g><g class="k"><path class="l" d="M-121.308,182.454a13.6,13.6,0,0,0-13.59-.007l-80.987,46.64a1.911,1.911,0,0,0,0,3.311l81.662,47.138a12,12,0,0,0,11.992,0l81.788-47.093a1.913,1.913,0,0,0,0-3.312Z" transform="translate(216.841 -180.632)"/></g><path class="c" d="M-40.443,229.13l-80.866-46.677a13.6,13.6,0,0,0-13.59-.007l-80.987,46.64a1.89,1.89,0,0,0-.956,1.655v27.425a1.894,1.894,0,0,0,.956,1.656l81.662,47.136a11.993,11.993,0,0,0,11.992,0l81.788-47.093a1.894,1.894,0,0,0,.957-1.656V230.786h0A1.894,1.894,0,0,0-40.443,229.13Z" transform="translate(216.841 -180.632)"/><g class="k"><path class="l" d="M-121.308,182.454a13.6,13.6,0,0,0-13.59-.007l-80.987,46.64a1.911,1.911,0,0,0,0,3.311l81.662,47.138a12,12,0,0,0,11.992,0l81.788-47.093a1.913,1.913,0,0,0,0-3.312Z" transform="translate(216.841 -180.632)"/></g><g class="m" transform="translate(49.111 27.785)"><path class="n" d="M-138.493,201.7a5.77,5.77,0,0,0-5.761,0l-36.286,20.9a.853.853,0,0,0,0,1.478l36.435,21.031a5.354,5.354,0,0,0,5.351,0l36.491-21.012a.853.853,0,0,0,0-1.478Z" transform="translate(180.967 -200.933)"/></g><path class="n" d="M-180.543,223.91l36.286-20.9a5.763,5.763,0,0,1,5.761,0l36.231,20.913c.037.021.051.059.084.083a.84.84,0,0,0-.084-1.395L-138.5,201.7a5.77,5.77,0,0,0-5.761,0l-36.286,20.9a.839.839,0,0,0-.082,1.395C-180.594,223.967-180.58,223.93-180.543,223.91Z" transform="translate(230.081 -173.148)"/><path class="l" d="M-40.443,217.314l-81.788,47.093a11.994,11.994,0,0,1-11.992,0l-81.662-47.136a1.888,1.888,0,0,1-.709-.714,1.914,1.914,0,0,0,.709,2.6l81.662,47.138a12,12,0,0,0,11.992,0L-40.443,219.2a1.911,1.911,0,0,0,.709-2.6A1.894,1.894,0,0,1-40.443,217.314Z" transform="translate(216.842 -167.388)"/></g><g transform="translate(-424.197 -3.049)"><path class="o" d="M-83.816,174.916v-48.5c-1.124-16.527-7.665-32.282-18.647-46.685v48.5c10.982,14.4,17.523,30.157,18.647,46.685Zm-24.261-53.5v-48.5a138.585,138.585,0,0,0-12.842-12.65v48.5a138.755,138.755,0,0,1,12.842,12.65Zm-20.789-19.113v-48.5a187.026,187.026,0,0,0-16.369-11.134v48.5a187.637,187.637,0,0,1,16.369,11.134Zm-27.358-3.049V22.1c44.689,23.7,72.582,57.6,72.582,95.1v77.159c0-37.5-27.893-71.4-72.582-95.105Z" transform="translate(533.525 12.319)"/><path class="o" d="M-175.415,71.485V57.551q-5.113-.979-10.337-1.822V69.663q5.222.842,10.337,1.822ZM-194.009,54.5V42.164q-5.3-.731-10.7-1.318V53.178q5.394.585,10.7,1.318Zm36.491,6.976V44.661q-4.91-1.215-9.937-2.3V59.171q5.027,1.084,9.937,2.3Zm-55.726-9.125V27.527q-5.462-.47-11.008-.788V51.557q5.544.318,11.008.79Zm-39.939-1.4V26.129q-5.614.084-11.161.326V51.274q5.546-.24,11.161-.326Zm-19.841.8V20.531q-5.487.361-10.893.869V52.617q5.4-.509,10.893-.87Zm40-.6V15.444q-5.013-.177-10.085-.227l-1.2-.011V50.913l1.2.01q5.072.051,10.085.229Zm-59.342,2.357V8.84q-5.343.624-10.593,1.392V54.9q5.249-.766,10.593-1.391ZM-325.709,5.019a379.59,379.59,0,0,1,82.6-8.048c38.787.389,75.12,6.359,106.71,16.553V90.682c-31.59-10.194-67.923-16.164-106.71-16.552a379.676,379.676,0,0,0-82.6,8.048V5.019Z" transform="translate(470.989 3.049)"/><path class="o" d="M-417.86,103.758V88.222a93.813,93.813,0,0,0-10.967,20.7v46.01a93.8,93.8,0,0,1,10.967-20.7V118.7q2.006-2.889,4.245-5.7v8.378a125.607,125.607,0,0,1,9.283-10.41v-8.378c14.559-14.647,33.948-27.495,56.9-37.843V49.8q-6.127,2.763-11.909,5.758-2.891,1.5-5.691,3.052a176.69,176.69,0,0,0-37.991,27.73q-.661.649-1.313,1.3V79.266a125.389,125.389,0,0,0-9.283,10.41v8.378q-2.236,2.817-4.245,5.7Zm-13.972-.487c8.777-37.653,45.672-70.081,98.006-90.263V90.167c-52.335,20.181-89.23,52.61-98.006,90.263V103.271Z" transform="translate(431.832 8.968)"/><path class="p" d="M-408.1,77.733q.651-.653,1.313-1.3V91.372a166.668,166.668,0,0,1,27.18-21.3q5.212-3.32,10.811-6.426V48.7q2.8-1.554,5.691-3.052V60.59q5.779-2.993,11.909-5.758v0c-22.955,10.348-42.344,23.2-56.9,37.843V77.733Zm-13.528,16.115q2.006-2.889,4.245-5.7v14.942q-2.236,2.817-4.245,5.7V93.848Z" transform="translate(435.598 18.878)"/><path class="q" d="M-378.877,45.648q5.779-2.993,11.909-5.758V54.832q-6.127,2.763-11.909,5.758V45.648Z" transform="translate(451.371 18.878)"/><path class="q" d="M-410.785,72.326a166.67,166.67,0,0,1,27.18-21.3V65.964a166.67,166.67,0,0,0-27.18,21.3V72.326Z" transform="translate(439.598 22.982)"/><path class="r" d="M-390.931,52.753q5.212-3.32,10.811-6.426V61.269q-5.6,3.1-10.811,6.426V52.753Z" transform="translate(446.924 21.251)"/><path class="p" d="M-429.637,88.663a93.815,93.815,0,0,1,10.967-20.7V83.5a93.775,93.775,0,0,0-10.967,20.7v14.942a93.775,93.775,0,0,1,10.967-20.7v15.534a93.805,93.805,0,0,0-10.967,20.7V88.663Z" transform="translate(432.642 29.228)"/><path class="q" d="M-429.637,100.012a93.775,93.775,0,0,1,10.967-20.7V94.256a93.775,93.775,0,0,0-10.967,20.7V100.012Z" transform="translate(432.642 33.412)"/><path class="p" d="M-418.525,95.148a125.612,125.612,0,0,1,9.283-10.41v8.378a125.612,125.612,0,0,0-9.283,10.41V95.148Zm0-23.319a125.393,125.393,0,0,1,9.283-10.41V69.8a125.612,125.612,0,0,0-9.283,10.41V71.829Z" transform="translate(436.742 26.815)"/><path class="q" d="M-418.525,77.95a125.609,125.609,0,0,1,9.283-10.41V82.482a125.614,125.614,0,0,0-9.283,10.41V77.95Z" transform="translate(436.742 29.072)"/><path class="p" d="M-116.953,64.209c10.982,14.4,17.523,30.158,18.647,46.685v48.5c-1.124-16.528-7.665-32.282-18.647-46.685V64.21Z" transform="translate(548.015 27.844)"/><path class="n" d="M-130.435,49.989a138.584,138.584,0,0,1,12.842,12.65v48.5a138.756,138.756,0,0,0-12.842-12.65v-48.5Z" transform="translate(543.041 22.601)"/><path class="p" d="M-148.2,37.132a187.023,187.023,0,0,1,16.369,11.134v48.5A187.634,187.634,0,0,0-148.2,85.629v-48.5Z" transform="translate(536.487 17.862)"/><path class="p" d="M-210.109,30.129q5.027,1.084,9.937,2.3V49.241q-4.91-1.215-9.937-2.3V30.129Z" transform="translate(513.643 15.28)"/><path class="p" d="M-223.474,39.9q5.222.842,10.337,1.822V55.653q-5.113-.979-10.337-1.822V39.9Z" transform="translate(508.711 18.881)"/><path class="p" d="M-237.32,29.023q5.394.587,10.7,1.318V42.673q-5.3-.731-10.7-1.318V29.023Z" transform="translate(503.602 14.872)"/><path class="p" d="M-251.6,18.715q5.544.318,11.008.788V44.324q-5.462-.47-11.008-.79V18.715Z" transform="translate(498.335 11.072)"/><path class="p" d="M-266.248,10.289l1.2.011q5.072.049,10.085.227V46.234q-5.013-.177-10.085-.229l-1.2-.01V10.289Z" transform="translate(492.929 7.966)"/><path class="n" d="M-280.883,18.6q5.546-.24,11.161-.326V43.089q-5.614.084-11.161.326V18.6Z" transform="translate(487.529 10.908)"/><path class="p" d="M-295.18,15.049q5.4-.507,10.893-.869V45.395q-5.487.361-10.893.87V15.049Z" transform="translate(482.253 9.4)"/><path class="n" d="M-309.091,7.03q5.249-.768,10.593-1.392V50.305q-5.343.624-10.593,1.391V7.03Z" transform="translate(477.121 6.251)"/></g><g transform="translate(-303.959 57.703)"><g transform="translate(0 215.018)"><g class="k" transform="translate(0 46.65)"><path class="s" d="M-250.723,234.6a15.5,15.5,0,0,1,15.49-.008l92.327,53.169a2.179,2.179,0,0,1,0,3.775L-236,345.275a13.672,13.672,0,0,1-13.671,0l-93.24-53.685a2.179,2.179,0,0,1,0-3.775Z" transform="translate(344.002 -232.525)"/></g><g class="k" transform="translate(0 31.1)"><path class="s" d="M-250.723,223.24a15.5,15.5,0,0,1,15.49-.007l92.327,53.169a2.179,2.179,0,0,1,0,3.775L-236,333.914a13.672,13.672,0,0,1-13.671,0l-93.24-53.685a2.18,2.18,0,0,1,0-3.776Z" transform="translate(344.002 -221.164)"/></g><g class="k" transform="translate(0 15.55)"><path class="s" d="M-250.723,211.879a15.508,15.508,0,0,1,15.49-.008l92.327,53.169a2.18,2.18,0,0,1,0,3.776L-236,322.553a13.679,13.679,0,0,1-13.671,0l-93.24-53.687a2.179,2.179,0,0,1,0-3.775Z" transform="translate(344.002 -209.803)"/></g><g class="k" transform="translate(0 0.001)"><path class="s" d="M-250.723,200.519a15.5,15.5,0,0,1,15.49-.008l92.327,53.169a2.179,2.179,0,0,1,0,3.775L-236,311.191a13.672,13.672,0,0,1-13.671,0l-93.24-53.685a2.179,2.179,0,0,1,0-3.775Z" transform="translate(344.002 -198.441)"/></g><path class="t" d="M-342.911,253.731l92.188-53.212a15.5,15.5,0,0,1,15.49-.008l92.327,53.169a2.159,2.159,0,0,1,1.091,1.887v46.649a2.159,2.159,0,0,1-1.091,1.887L-236,357.84a13.672,13.672,0,0,1-13.671,0l-93.24-53.685a2.158,2.158,0,0,1-1.09-1.887V255.618h0A2.158,2.158,0,0,1-342.911,253.731Z" transform="translate(344.002 -198.441)"/><g class="k" transform="translate(0 0.001)"><path class="s" d="M-250.723,200.519a15.5,15.5,0,0,1,15.49-.008l92.327,53.169a2.179,2.179,0,0,1,0,3.775L-236,311.191a13.672,13.672,0,0,1-13.671,0l-93.24-53.685a2.179,2.179,0,0,1,0-3.775Z" transform="translate(344.002 -198.441)"/></g><path class="s" d="M-342.911,240.26l93.24,53.686a13.672,13.672,0,0,0,13.671,0l93.095-53.736a2.157,2.157,0,0,0,.809-.814,2.181,2.181,0,0,1-.809,2.962L-236,296.093a13.672,13.672,0,0,1-13.671,0l-93.24-53.685a2.181,2.181,0,0,1-.809-2.962A2.156,2.156,0,0,0-342.911,240.26Z" transform="translate(344.002 -183.343)"/></g><ellipse class="u" cx="50.831" cy="29.34" rx="50.831" ry="29.34" transform="translate(50.262 242.968)"/><g transform="translate(58.542)"><path class="v" d="M-251.457,222.123s1.235,1.288,2.518,2.806,4.887,3.63,6.4,4.57,8.452,6.2,9.9,11.375-3.507,5.862-8.579,4.963-9.809-5.577-11.19-7.266-6.18-5.521-12.4-8.742-2.46-7.551-2.46-7.551Z" transform="translate(313.355 25.307)"/><path class="v" d="M-289.172,233.36a19.226,19.226,0,0,0-1.317,5.323c-.292,2.993-.71,9.485-.865,11.383a16.058,16.058,0,0,0,3.124,10.994c3.343,4.448,5.071,6.206,9.513,4.455s4.341-9.2,3.555-13.039a106.531,106.531,0,0,1-1.436-13.313,2.66,2.66,0,0,0-.255-1.475Z" transform="translate(304.864 29.45)"/><path class="w" d="M-227.414,161.688s-.936,34.186-8.905,52.333a131.96,131.96,0,0,0-6.462,34.994s1.318,3.272-.552,5.934-13.568,5.1-15.5-3.645-1.19-25.1.935-31.921-.757-25.621-.757-25.621-3.2,2.042-7.39,15.549-7.276,18.659-8.718,22.39-2.768,26.623-1.855,37.8c0,0-9.473,1.345-12.213-3.182s-3.655-27.952-2.961-35.421,3.818-31.391,3.388-38.795-1.971-13.414-.278-20.808,51.687-23.82,51.687-23.82Z" transform="translate(304.641 -2.212)"/><path class="v" d="M-288.4,189.363c-.428-7.4-1.971-13.414-.278-20.808.637-2.78,8.1-6.835,17.166-10.815,15.3-1.4,34.705-3.018,36.041-2.814a50.161,50.161,0,0,1,6.993,2.436l1.068,1.584s-.058,2.08-.261,5.475c-3.569,1.068-10.434-.034-10.434-.034-.966,2.4-6.928,10.923-14.344,14.6s-29.114,2.417-30.358,3.816-1.488,20.114-1.35,22.494-2.044,17.361-4.062,30.61c-1.985,13.034,1.036,28.875,1.135,29.384a5.373,5.373,0,0,1-1.741-1.715c-2.739-4.529-3.655-27.952-2.961-35.421S-287.973,196.766-288.4,189.363Z" transform="translate(304.641 0.528)"/><path class="x" d="M-241.71,77.388s11.09,2.529,14.822,3.405a1.923,1.923,0,0,1,1.353,1.17c1.076,2.728,3.778,11.2,1.743,23.567-2.5,15.2-1.71,25.432-1.71,25.432l5.131,26.694s6.449,25.425,5.893,26.121-14.852,11.571-19.319,10.039-3-4.059-3-4.059-3.62,18.426-19.638,18.25-29.106-.126-31.826-6.6.745-33.688,3.569-44.463,9.539-32.254,9.539-32.254l-23.463-25.963,20.051-15.311s4.791-8.9,6.76-10.029,3-.174,3-.174Z" transform="translate(302.205 -29.73)"/><g transform="translate(12.96 154.456)"><path class="y" d="M-251,157.954c-.015.925.524,2.3,3.4,3.289,3.11,1.066,10.731-3.565,15.73-7.051-2.5,2.074-14.774,11.033-18.86,9.631a7.26,7.26,0,0,1-2.01-1A32.881,32.881,0,0,0-251,157.954Z" transform="translate(306.174 -154.192)"/><path class="z" d="M-290.669,167.785c2.871,6.832,16.681,6.779,33.586,6.965a18.068,18.068,0,0,0,10.51-3.029,17.087,17.087,0,0,1-12.388,4.824c-16.02-.178-29.106-.126-31.826-6.6-.893-2.124-1.116-6.492-.917-11.772C-291.742,162.462-291.447,165.932-290.669,167.785Z" transform="translate(291.771 -152.724)"/></g><path class="aa" d="M-278.341,73.157s-4.1,4.955,1.8,11.643c3.628,4.117,9.869,12.994,15.187,22.213,3.323,5.758,6.392,8.829,8.133,13.776,0,0,.244-5.877.476-14.953.22-8.565.337-17.467-.047-19.707C-253.583,81.513-273.813,70.911-278.341,73.157Z" transform="translate(309.175 -29.723)"/><path class="ab" d="M-262.312,98.8s2.1,1.3,2.823,1.2,3.047-2.365,3.047-2.365,5.814-.105,6.449-2.6a54.006,54.006,0,0,1,1.641-6.3c.589-1.295,3.1-7.508,3.117-10.029s-.077-7.025,1.013-9.41,2.557-26.245-20.488-25.572-15.887,24.6-15.887,24.6-1.684.717-.664,3.8,1.247,3.4,1.766,4.927a6.808,6.808,0,0,0,2.241,3.75l.382,2.837a11.387,11.387,0,0,0,1.771,8.545C-272.235,96.393-262.312,98.8-262.312,98.8Z" transform="translate(308.466 -40.463)"/><path class="w" d="M-240.207,78.85s2.457.365,10.43,20.418c4.449,11.19,11.316,22.777,12.771,31.093s.643,17.207-1,17.832c-1.583.6-30.23,11.319-39.2,14.7a.843.843,0,0,1-1.128-.645l-2.472-13.832,17.778-6.867s3.387-4.137,6.57-5.689c0,0-3.565-6.567-3.338-8.358s-.318-20.342,1.766-27.89S-240.207,78.85-240.207,78.85Z" transform="translate(316.158 -27.511)"/><path class="ab" d="M-253.363,118.544a35.717,35.717,0,0,1,3.053-1.879c.605-.234,3.88-1.352,4.5-1.631a12.327,12.327,0,0,1,3.327.047,1.041,1.041,0,0,1,.815.542c.757,1.4,2.863,5.484,2.626,7.043,0,0-5.918,3.739-6.579,5.406l-.945.2S-250.528,119.772-253.363,118.544Z" transform="translate(318.903 -14.21)"/><path class="w" d="M-287.692,136.763c.679-2.592,1.585-5.806,2.567-9.191l36,15.43a37.973,37.973,0,0,1-29.666,12.4,24.806,24.806,0,0,1-11.7-3.7A143.515,143.515,0,0,1-287.692,136.763Z" transform="translate(305.205 -9.55)"/><path class="w" d="M-297.649,91.751s9.5,1.307,17.166,13.462a183.984,183.984,0,0,1,13.263,26.223l.264,1.582a6.4,6.4,0,0,0,8.924,4.794c8.1-3.616,20.1-9.082,22.333-10.723a20.639,20.639,0,0,1,9.131,13.331c1.561,7.47,1.165,7.493,1.165,7.493s-31.971,14.918-44.318,14.772-28.012-40.733-29.737-49.121S-303.083,94.122-297.649,91.751Z" transform="translate(301.238 -22.755)"/><path class="ac" d="M-297.649,91.751s9.5,1.307,17.166,13.462a183.984,183.984,0,0,1,13.263,26.223l.264,1.582a6.4,6.4,0,0,0,8.924,4.794c8.1-3.616,20.1-9.082,22.333-10.723a20.639,20.639,0,0,1,9.131,13.331c1.561,7.47,1.165,7.493,1.165,7.493s-31.971,14.918-44.318,14.772-28.012-40.733-29.737-49.121S-303.083,94.122-297.649,91.751Z" transform="translate(301.238 -22.755)"/><path class="x" d="M-269.411,129.091s-4.032,3.771-5.788,1.707-1.239-2.294-1.239-2.294-3.628-.033-4.07-2.306-2.229-1.072-2.331-3.605,2.936-2.013,2.936-2.013Z" transform="translate(308.026 -12.143)"/><path class="ab" d="M-264.847,128.844s-1.109-1.032-2.539-2.242-3.743-6.216-4.133-6.657-5.216-4.142-7.542-4.206-.6,2.539-.063,2.906,2.806,1.495,2.806,1.495,2.335,1.961,2.6,2.249-6.494-.464-7.568.194a1.83,1.83,0,0,0-.066,2.856,2.65,2.65,0,0,0,1.336.453,2.35,2.35,0,0,0,1.268,2.977c2.027.943,2.494.419,2.494.419s.175,3.513,3.524,2.818Z" transform="translate(308.335 -13.912)"/><path class="ad" d="M-243.463,57.978s3.01,9.575-4.909,6.85-15.082-7.283-17.568-5.547c-1.893,1.322-1.807,5.373-1.658,7.232a2.75,2.75,0,0,1-.475,1.786l-2.346,3.411a2.608,2.608,0,0,0-.454,1.3l-.168,2.373a1.191,1.191,0,0,1-1.118,1.1l-.541.031a1.192,1.192,0,0,1-1.242-.984l-.611-3.486s-1.863-4.689-5.8-2.847c0,0-2.635-3.538-1.759-11.105S-277.85,42.662-263,41.4-243.463,57.978-243.463,57.978Z" transform="translate(308.228 -41.339)"/><path class="ae" d="M-270.509,90.923l2.222-1.723a11.987,11.987,0,0,1,2.857,3.517c.8,1.811,0,7.567,0,7.567l.678,1.163.834-1.522.7-6.806s-.756-5.028-.83-5.157-4.286.448-4.286.448A8.718,8.718,0,0,0-270.509,90.923Z" transform="translate(312.576 -24.158)"/><path class="ae" d="M-262.7,85.173a7.553,7.553,0,0,1,3.444,1.046s-2.492.122-2.887.167S-262.7,85.173-262.7,85.173Z" transform="translate(315.456 -25.18)"/><path class="w" d="M-264.934,85.695l-3.986,3.724s3.5,1.61,4.477,4.736c0,0,4.337.81,4.733-.76s-.011-5.527.507-7.281S-264.934,85.695-264.934,85.695Z" transform="translate(313.162 -25.167)"/><path class="w" d="M-260.836,91.146a22.069,22.069,0,0,0,1.55,4.607c.809,1.347,1.637,2.855,1.637,2.855l-.1,19.119s-7.033-14.494-8.559-17.428c0,0,.234-6.982.9-8.3S-260.836,91.146-260.836,91.146Z" transform="translate(314.127 -23.008)"/><path class="af" d="M-275.246,70.482c4.62,13.328,17.62,17.283,17.62,17.283s-2.325,2.257-3.047,2.365-2.823-1.2-2.823-1.2-9.924-2.409-12.788-6.62a11.387,11.387,0,0,1-1.771-8.545l-.382-2.837A3.137,3.137,0,0,0-275.246,70.482Z" transform="translate(309.651 -30.596)"/><path class="w" d="M-283.828,81.881s1.825,6.289,2.059,6.527,4.585-.266,4.585-.266l-2.112,4s21.88,23.46,26.416,36.078a267.65,267.65,0,0,0-28.576-35.1l2.578-3.9-4.472.872Z" transform="translate(307.662 -26.394)"/><path class="w" d="M-257.519,77.823l1.161,1.325-1.363,1.273,4.045,3.656s1.238,25.661-3.7,42.66c0,0,6.707-15.592,5.186-43.359l-4.379-2.967L-255.14,79Z" transform="translate(317.294 -27.89)"/><path class="v" d="M-267.3,182.888a1.4,1.4,0,0,0-.151.119l5.668-6.032c-2.616,3.689.4,20.579.711,24.447s-3.027,11.852-4.277,21.21,1.31,22.684,1.317,22.724a7.215,7.215,0,0,1-3.446-4.926c-1.933-8.742-1.19-25.1.935-31.921S-267.3,182.888-267.3,182.888Z" transform="translate(313.283 8.663)"/><path class="ag" d="M-269.974,157.987c-12.347-.146-28.012-40.732-29.737-49.121-.288-1.4-.578-2.876-.841-4.37.045.122,3.243,8.884,6.329,16.652,3.108,7.823,19.607,31.537,28.038,33.082,7.6,1.393,34.957-11.372,40.253-13.892.479,2.85.275,2.877.275,2.877S-257.627,158.134-269.974,157.987Z" transform="translate(301.491 -18.057)"/><path class="ah" d="M-272.7,71.845a1.192,1.192,0,0,1-1.242-.984l-.611-3.486s-1.863-4.689-5.8-2.847c0,0-2.485-3.361-1.814-10.513,4.379,6.574,14.1,9.609,14.1,9.609l-2.346,3.411a2.609,2.609,0,0,0-.454,1.3l-.168,2.373a1.191,1.191,0,0,1-1.118,1.1Z" transform="translate(308.23 -36.666)"/></g></g><g transform="translate(-424.749 128.778)"><path class="o" d="M-361.945,248.043V235.006q3.918,2.1,8.01,4.092v13.038q-4.09-1.993-8.01-4.094Zm-25.681-16.29V207.729q3.255,2.451,6.708,4.812v24.024q-3.452-2.359-6.708-4.812Zm12.24,8.456V211.872q3.6,2.283,7.386,4.467v28.337q-3.785-2.182-7.386-4.467Zm-32.84-27.058V181.711q2.5,2.747,5.219,5.419v31.439q-2.717-2.669-5.219-5.419Zm9.628,9.568v-34.06q2.889,2.609,5.988,5.131v34.06q-3.1-2.521-5.988-5.131Zm-24.542-30.131V155.66q1.661,3,3.568,5.936v36.926q-1.906-2.934-3.568-5.934Zm6.705,10.5V155.05q2.092,2.88,4.418,5.692V208.78q-2.325-2.811-4.418-5.694Zm-11.835-21.395V127.437q1.21,3.1,2.676,6.152v54.255q-1.466-3.049-2.676-6.152Zm90.81,12.039c-51.632-20.8-87.305-53.648-94.776-91.286V179.6c7.47,37.639,43.143,70.491,94.776,91.288V193.73Z" transform="translate(432.235 -89.888)"/><path class="o" d="M-224.228,252.658V235.253q13.323-.729,26.178-2.325v17.407q-12.838,1.587-26.178,2.324Zm-41.752.079v-31.72q7.984.4,16.125.487,5.561.055,11.063-.041v31.719q-5.5.1-11.063.042-8.138-.082-16.125-.487Zm-40.242-4.162v-48.5q12.623,2,25.816,3.166v48.5q-13.179-1.158-25.816-3.166Zm121.925-.207V197.15q12.532-2.032,24.45-4.856v51.218q-11.9,2.817-24.45,4.857Zm45.039-73.275c-32.892,10.12-70.623,15.7-110.6,15.3a376.164,376.164,0,0,1-78.941-8.976v77.159a376.167,376.167,0,0,0,78.941,8.974c39.974.4,77.7-5.178,110.6-15.3V175.094Z" transform="translate(470.402 -63.105)"/><path class="o" d="M-146.573,227.327V212.385c36.016-21.261,59.462-49.608,63.293-81.143v14.942c-3.832,31.535-27.277,59.883-63.293,81.143Zm63.813-56.9V93.27c-1.149,37.741-30.324,71.429-75.952,94.656v77.159c45.628-23.227,74.8-56.917,75.952-94.656Z" transform="translate(533.159 -93.27)"/><path class="p" d="M-86.552,121.014c-3.832,31.535-27.277,59.883-63.293,81.143V217.1c36.016-21.261,59.462-49.608,63.293-81.143V121.014Z" transform="translate(536.43 -83.042)"/><path class="n" d="M-286.491,196.515q-13.179-1.158-25.816-3.166v48.5q12.623,2,25.816,3.166v-48.5Z" transform="translate(476.486 -56.375)"/><path class="n" d="M-226.234,217.35q-12.838,1.589-26.178,2.325v17.405q13.323-.727,26.178-2.325V217.35Z" transform="translate(498.586 -47.527)"/><path class="n" d="M-198.794,187.661q-11.9,2.815-24.45,4.856v51.219q12.532-2.032,24.45-4.857V187.661Z" transform="translate(509.348 -58.472)"/><path class="p" d="M-255.723,209.094q-5.5.1-11.063.041-8.138-.082-16.125-.487v31.72q7.984.4,16.125.487,5.561.055,11.063-.042V209.094Z" transform="translate(487.332 -50.735)"/><path class="n" d="M-426.662,126.857q-1.466-3.047-2.676-6.152V174.96q1.21,3.1,2.676,6.152V126.857Z" transform="translate(433.304 -83.156)"/><path class="n" d="M-422.023,147.262q-1.906-2.936-3.568-5.936v36.928q1.661,3,3.568,5.934V147.262Z" transform="translate(434.686 -75.554)"/><path class="p" d="M-416.275,146.572q-2.325-2.811-4.418-5.692v48.037q2.092,2.882,4.418,5.694V146.572Z" transform="translate(436.494 -75.718)"/><path class="n" d="M-409.479,165.779q-2.717-2.669-5.219-5.419V191.8q2.5,2.747,5.219,5.419V165.779Z" transform="translate(438.706 -68.537)"/><path class="p" d="M-401.676,170.567q-3.1-2.521-5.988-5.131V199.5q2.889,2.607,5.988,5.131v-34.06Z" transform="translate(441.301 -66.666)"/><path class="p" d="M-392.941,184.182q-3.452-2.361-6.708-4.812v24.024q3.255,2.453,6.708,4.812V184.182Z" transform="translate(444.258 -61.529)"/><path class="p" d="M-383.322,186.864q-3.785-2.182-7.386-4.467v28.337q3.6,2.283,7.386,4.467V186.864Z" transform="translate(447.557 -60.413)"/><path class="p" d="M-372.88,203.392q-4.09-1.991-8.01-4.092v13.036q3.918,2.1,8.01,4.094V203.392Z" transform="translate(451.18 -54.182)"/></g></g></svg>