<svg xmlns="http://www.w3.org/2000/svg" xmlns:xlink="http://www.w3.org/1999/xlink" width="133" height="40" viewBox="0 0 133 40"><defs><style>.a{fill:url(#a);}.b{fill:#231f20;}.c{fill:#50b856;}</style><linearGradient id="a" x1="0.067" y1="0.162" x2="0.856" y2="1.086" gradientUnits="objectBoundingBox"><stop offset="0.11" stop-color="#50b856"/><stop offset="1" stop-color="#f8d704"/></linearGradient></defs><g transform="translate(-100.981 -204.811)"><path class="a" d="M144.462,226.573l-6.713-4.232a1.282,1.282,0,0,0-1.948,1.146l.012,1.558-5.9-.05a.029.029,0,0,1-.025-.015l-4.327-7.822A6.94,6.94,0,0,0,113.392,217l-11.572,19.726a5.8,5.8,0,0,0-.737,4.04,5.369,5.369,0,0,0,5.21,4.428h.059l5.944-.068a2.94,2.94,0,0,0,2.654-3.925,2.832,2.832,0,0,0-2.705-1.962h-.011l-4.08.05a.689.689,0,0,1-.576-1.047l10.667-18.182a1.319,1.319,0,0,1,1.2-.69,1.352,1.352,0,0,1,1.184.722l2.7,4.876h-.152a3.266,3.266,0,0,0-.379.025c-5.863.788-8.508,5.549-8.528,9.917-.025,5.244,3.35,9.538,8.019,10.2a2.628,2.628,0,0,0,.361.023h8.156a5.812,5.812,0,0,0,5.113-2.995,6.2,6.2,0,0,0,.1-6.061l-2.833-5.121a.03.03,0,0,1,.026-.045l2.6.031c0,.337-.005.674-.008,1a1.282,1.282,0,0,0,1.947,1.146l6.713-4.232A1.354,1.354,0,0,0,144.462,226.573Zm-15.024,12.661h-6.567c-2.018-.4-2.93-2.483-2.921-4.3a3.869,3.869,0,0,1,3.405-4.08h.006l3.219.016a.029.029,0,0,1,.025.015l3.747,6.77A.99.99,0,0,1,129.438,239.234Z" transform="translate(0 -6.797)"/><g transform="translate(148.667 204.811)"><path class="b" d="M340.957,263.648a9.579,9.579,0,0,1-3.682-.749,10.086,10.086,0,0,1-3.259-2.173,10.754,10.754,0,0,1-2.326-3.489,11.853,11.853,0,0,1-.881-4.694,12.164,12.164,0,0,1,.863-4.73,10.693,10.693,0,0,1,2.29-3.489,9.848,9.848,0,0,1,3.26-2.174,9.966,9.966,0,0,1,3.806-.749,8.828,8.828,0,0,1,3.771.8,8.348,8.348,0,0,1,1.67,1.023.739.739,0,0,0,1.184-.617h0a.758.758,0,0,1,.744-.771h3.27a.758.758,0,0,1,.744.771v19.828a.758.758,0,0,1-.744.771H348.4a.758.758,0,0,1-.744-.771V262.3a.738.738,0,0,0-1.2-.6,8.179,8.179,0,0,1-1.689,1.089A8.581,8.581,0,0,1,340.957,263.648Zm.775-4.53a5.928,5.928,0,0,0,2.449-.512,5.671,5.671,0,0,0,1.956-1.425,7.06,7.06,0,0,0,1.762-4.712,6.965,6.965,0,0,0-1.762-4.657,5.8,5.8,0,0,0-1.956-1.406,6.161,6.161,0,0,0-4.916,0,6.373,6.373,0,0,0-1.973,1.388,6.288,6.288,0,0,0-1.322,2.082,7,7,0,0,0-.476,2.594,7.139,7.139,0,0,0,.476,2.612,6.438,6.438,0,0,0,1.322,2.119,6.209,6.209,0,0,0,1.973,1.406A5.892,5.892,0,0,0,341.732,259.118Z" transform="translate(-330.808 -233.527)"/><path class="b" d="M463.215,261.683a.487.487,0,0,0-.824-.371,8.031,8.031,0,0,1-2.066,1.46,8.5,8.5,0,0,1-3.841.877,9.579,9.579,0,0,1-3.682-.749,10.087,10.087,0,0,1-3.259-2.173,10.755,10.755,0,0,1-2.326-3.489,11.852,11.852,0,0,1-.881-4.694,12.164,12.164,0,0,1,.863-4.73,10.691,10.691,0,0,1,2.29-3.489,9.846,9.846,0,0,1,3.26-2.174,9.967,9.967,0,0,1,3.806-.749,8.347,8.347,0,0,1,5.807,2.272.487.487,0,0,0,.818-.377v-.946a.5.5,0,0,1,.492-.51h3.773a.5.5,0,0,1,.492.51v20.312a12.787,12.787,0,0,1-.688,4.237,9.965,9.965,0,0,1-2.026,3.452,9.485,9.485,0,0,1-3.33,2.338,11.533,11.533,0,0,1-4.6.858,13.579,13.579,0,0,1-3.647-.457,11.036,11.036,0,0,1-2.943-1.279,10.548,10.548,0,0,1-2.291-1.936,12.131,12.131,0,0,1-1.455-2.033.52.52,0,0,1,.173-.691l3.388-2.136a.485.485,0,0,1,.682.184,13.674,13.674,0,0,0,.912,1.407,5.941,5.941,0,0,0,1.357,1.333,5.727,5.727,0,0,0,1.709.8,7.9,7.9,0,0,0,2.185.274,5.669,5.669,0,0,0,2.431-.511,5.74,5.74,0,0,0,1.85-1.352,5.977,5.977,0,0,0,1.281-2.333,7.82,7.82,0,0,0,.288-2.23Zm-5.956-2.565a5.929,5.929,0,0,0,2.449-.512,5.669,5.669,0,0,0,1.956-1.425,7.061,7.061,0,0,0,1.762-4.712,6.9,6.9,0,0,0-.476-2.557,6.825,6.825,0,0,0-1.286-2.1,5.792,5.792,0,0,0-1.956-1.406,6.161,6.161,0,0,0-4.916,0,6.375,6.375,0,0,0-1.973,1.388,6.293,6.293,0,0,0-1.321,2.082,7,7,0,0,0-.476,2.594,7.141,7.141,0,0,0,.476,2.612,6.443,6.443,0,0,0,1.321,2.119,6.212,6.212,0,0,0,1.973,1.406A5.891,5.891,0,0,0,457.259,259.118Z" transform="translate(-422.302 -233.548)"/><path class="b" d="M561.693,207.916a3.138,3.138,0,0,1,.81-2.247,3.232,3.232,0,0,1,4.388,0,3.181,3.181,0,0,1,.793,2.247,3.114,3.114,0,0,1-.793,2.228,3.33,3.33,0,0,1-4.423,0A3.155,3.155,0,0,1,561.693,207.916Zm1.111,5.224h3.768a.522.522,0,0,1,.512.531v20.308a.522.522,0,0,1-.512.531H562.8a.522.522,0,0,1-.512-.531V213.671A.522.522,0,0,1,562.8,213.14Z" transform="translate(-513.662 -204.811)"/><path class="b" d="M604.222,217.178h3.409a.7.7,0,0,1,.692.717v25.6a.7.7,0,0,1-.692.717h-3.409a.7.7,0,0,1-.692-.717V217.9A.7.7,0,0,1,604.222,217.178Z" transform="translate(-546.796 -214.511)"/><path class="b" d="M649.314,263.648a11.194,11.194,0,0,1-4.44-.859,10.226,10.226,0,0,1-3.436-2.356,10.691,10.691,0,0,1-2.22-3.525,11.784,11.784,0,0,1-.793-4.329,11.567,11.567,0,0,1,.828-4.384,10.962,10.962,0,0,1,2.273-3.544,10.819,10.819,0,0,1,3.4-2.374,10.176,10.176,0,0,1,4.211-.877,10.841,10.841,0,0,1,4.246.822,9.866,9.866,0,0,1,3.365,2.3,10.688,10.688,0,0,1,2.2,3.488,11.844,11.844,0,0,1,.793,4.384v1.375a.48.48,0,0,1-.471.488H643.59a.491.491,0,0,0-.45.646,6.111,6.111,0,0,0,6.173,4.4,5.984,5.984,0,0,0,3.489-1.023,6.2,6.2,0,0,0,2.012-2.3.457.457,0,0,1,.643-.18l3.07,1.835a.5.5,0,0,1,.176.667,10.889,10.889,0,0,1-3.523,3.758A10.437,10.437,0,0,1,649.314,263.648Zm-.176-17.9a5.921,5.921,0,0,0-3.718,1.205,6.248,6.248,0,0,0-1.943,2.49.489.489,0,0,0,.433.688h10.368a.491.491,0,0,0,.445-.658,5.27,5.27,0,0,0-1.851-2.612A6.133,6.133,0,0,0,649.138,245.748Z" transform="translate(-574.431 -233.527)"/></g><g transform="translate(197.124 236.748)"><g transform="translate(0 1.824)"><path class="c" d="M565.64,367.2a7,7,0,0,1-1.685-.211.215.215,0,0,1-.176-.221v-.778a.173.173,0,0,1,.176-.182h.037c.5.067,1.278.135,1.574.135.445,0,.546-.125.546-.375,0-.144-.083-.25-.342-.4l-1.2-.72a1.594,1.594,0,0,1-.825-1.421c0-.969.621-1.488,1.9-1.488a5.8,5.8,0,0,1,1.648.221.216.216,0,0,1,.176.221v.777c0,.115-.065.182-.157.182h-.028a14.417,14.417,0,0,0-1.537-.125c-.361,0-.491.058-.491.278,0,.144.1.221.287.336l1.148.682a1.6,1.6,0,0,1,.935,1.478C567.622,366.489,566.992,367.2,565.64,367.2Z" transform="translate(-563.742 -361.536)"/></g><g transform="translate(4.779 1.824)"><path class="c" d="M589.039,367.2a2.214,2.214,0,0,1-2.324-2.5v-.672a2.326,2.326,0,1,1,4.639,0v.672A2.207,2.207,0,0,1,589.039,367.2Zm.824-3.168c0-.777-.287-1.171-.824-1.171s-.833.394-.833,1.171v.672c0,.778.3,1.181.833,1.181s.824-.4.824-1.181Z" transform="translate(-586.715 -361.536)"/></g><g transform="translate(10.484 0.039)"><path class="c" d="M615.464,360.62h-1.13a.206.206,0,0,1-.194-.2v-6.969a.2.2,0,0,1,.194-.192h1.13a.182.182,0,0,1,.176.192v6.969A.19.19,0,0,1,615.464,360.62Z" transform="translate(-614.14 -353.257)"/></g><g transform="translate(13.198 1.901)"><path class="c" d="M631.556,367.392h-1.037a.189.189,0,0,1-.186-.192v-.231a2.276,2.276,0,0,1-1.509.5c-1.343,0-1.639-.969-1.639-2.179v-3.2a.206.206,0,0,1,.194-.2H628.5a.2.2,0,0,1,.185.2v3.2c0,.672.121.893.685.893a1.942,1.942,0,0,0,.87-.307v-3.782a.2.2,0,0,1,.185-.2h1.12a.206.206,0,0,1,.194.2V367.2A.189.189,0,0,1,631.556,367.392Z" transform="translate(-627.185 -361.892)"/></g><g transform="translate(18.626 0.72)"><path class="c" d="M656.5,363.108a3.862,3.862,0,0,1-.732.077c-1.019,0-1.556-.278-1.556-1.642v-2.784l-.741-.125a.221.221,0,0,1-.194-.2V357.8a.206.206,0,0,1,.194-.2h.741v-.787a.2.2,0,0,1,.185-.192l1.13-.2h.028a.161.161,0,0,1,.167.164V357.6h.759a.189.189,0,0,1,.185.192v.778a.189.189,0,0,1-.185.192h-.759v2.793c0,.384.028.451.306.451h.454c.121,0,.195.057.195.163v.749A.194.194,0,0,1,656.5,363.108Z" transform="translate(-653.275 -356.417)"/></g><g transform="translate(22.969)"><path class="c" d="M675.543,354.355h-1.2a.189.189,0,0,1-.185-.192v-.893a.189.189,0,0,1,.185-.192h1.2a.19.19,0,0,1,.185.192v.893A.189.189,0,0,1,675.543,354.355Zm-.037,6.124h-1.13a.189.189,0,0,1-.185-.192v-5.117a.19.19,0,0,1,.185-.192h1.13a.19.19,0,0,1,.185.192v5.117A.189.189,0,0,1,675.506,360.479Z" transform="translate(-674.154 -353.078)"/></g><g transform="translate(25.609 1.824)"><path class="c" d="M689.166,367.2a2.214,2.214,0,0,1-2.324-2.5v-.672a2.326,2.326,0,1,1,4.639,0v.672A2.207,2.207,0,0,1,689.166,367.2Zm.824-3.168c0-.777-.287-1.171-.824-1.171s-.833.394-.833,1.171v.672c0,.778.3,1.181.833,1.181s.824-.4.824-1.181Z" transform="translate(-686.842 -361.536)"/></g><g transform="translate(31.314 1.824)"><path class="c" d="M718.628,367.113h-1.12a.2.2,0,0,1-.186-.2v-3.2c0-.672-.12-.893-.685-.893a1.936,1.936,0,0,0-.87.307v3.782a.2.2,0,0,1-.185.2h-1.121a.205.205,0,0,1-.194-.2V361.8a.189.189,0,0,1,.185-.192h1.037a.19.19,0,0,1,.185.192v.23a2.28,2.28,0,0,1,1.509-.5c1.343,0,1.639.97,1.639,2.179v3.2A.206.206,0,0,1,718.628,367.113Z" transform="translate(-714.267 -361.536)"/></g></g></g></svg>