<svg xmlns="http://www.w3.org/2000/svg" xmlns:xlink="http://www.w3.org/1999/xlink" width="53" height="16" viewBox="0 0 53 16"><defs><style>.a{fill:url(#a);}.b{fill:#231f20;}.c{fill:#50b856;}</style><linearGradient id="a" x1="0.067" y1="0.162" x2="0.856" y2="1.086" gradientUnits="objectBoundingBox"><stop offset="0.11" stop-color="#50b856"/><stop offset="1" stop-color="#f8d704"/></linearGradient></defs><g transform="translate(-100.98 -204.811)"><path class="a" d="M118.308,218.715l-2.675-1.693a.511.511,0,0,0-.776.458l0,.623-2.353-.02a.011.011,0,0,1-.01-.006l-1.724-3.129a2.761,2.761,0,0,0-4.848-.065l-4.612,7.89a2.326,2.326,0,0,0-.294,1.616,2.142,2.142,0,0,0,2.076,1.771h.024l2.369-.027a1.176,1.176,0,0,0,1.058-1.57,1.129,1.129,0,0,0-1.078-.785h0l-1.626.02a.276.276,0,0,1-.229-.419l4.251-7.273a.525.525,0,0,1,.479-.276.538.538,0,0,1,.472.289l1.075,1.951h-.06a1.292,1.292,0,0,0-.151.01,3.866,3.866,0,0,0-3.4,3.967,3.92,3.92,0,0,0,3.2,4.078,1.044,1.044,0,0,0,.144.009h3.25a2.315,2.315,0,0,0,2.037-1.2,2.488,2.488,0,0,0,.039-2.424l-1.129-2.048a.012.012,0,0,1,.01-.018l1.036.012c0,.135,0,.27,0,.4a.511.511,0,0,0,.776.458l2.675-1.693A.543.543,0,0,0,118.308,218.715Zm-5.987,5.065H109.7a1.641,1.641,0,0,1-1.164-1.72,1.547,1.547,0,0,1,1.357-1.632h0l1.283.006a.012.012,0,0,1,.01.006l1.493,2.708A.4.4,0,0,1,112.321,223.78Z" transform="translate(0 -7.918)"/><g transform="translate(119.983 204.811)"><path class="b" d="M334.852,250.3a3.805,3.805,0,0,1-1.467-.3,4.018,4.018,0,0,1-1.3-.869,4.3,4.3,0,0,1-.927-1.4,4.757,4.757,0,0,1-.351-1.878,4.883,4.883,0,0,1,.344-1.892,4.279,4.279,0,0,1,.913-1.4,3.964,3.964,0,0,1,2.816-1.169,3.507,3.507,0,0,1,1.5.322,3.325,3.325,0,0,1,.666.409.294.294,0,0,0,.472-.247h0a.3.3,0,0,1,.3-.308h1.3a.3.3,0,0,1,.3.308v7.931a.3.3,0,0,1-.3.308h-1.3a.3.3,0,0,1-.3-.308v-.054a.294.294,0,0,0-.479-.241,3.26,3.26,0,0,1-.673.436A3.409,3.409,0,0,1,334.852,250.3Zm.309-1.812a2.354,2.354,0,0,0,.976-.2,2.26,2.26,0,0,0,.779-.57,2.83,2.83,0,0,0,.7-1.885,2.769,2.769,0,0,0-.19-1.023,2.734,2.734,0,0,0-.513-.84,2.309,2.309,0,0,0-.779-.563,2.447,2.447,0,0,0-1.959,0,2.5,2.5,0,0,0-1.313,1.388,2.809,2.809,0,0,0-.19,1.038,2.865,2.865,0,0,0,.19,1.045,2.577,2.577,0,0,0,.527.847,2.475,2.475,0,0,0,.786.563A2.34,2.34,0,0,0,335.161,248.488Z" transform="translate(-330.808 -238.251)"/><path class="b" d="M453.061,249.514a.194.194,0,0,0-.328-.149,3.2,3.2,0,0,1-.823.584,3.378,3.378,0,0,1-1.531.351,3.8,3.8,0,0,1-1.467-.3,4.019,4.019,0,0,1-1.3-.869,4.3,4.3,0,0,1-.927-1.4,4.755,4.755,0,0,1-.351-1.878,4.881,4.881,0,0,1,.344-1.892,4.278,4.278,0,0,1,.913-1.4,3.964,3.964,0,0,1,2.816-1.169,3.32,3.32,0,0,1,2.314.909.194.194,0,0,0,.326-.151v-.378a.2.2,0,0,1,.2-.2h1.5a.2.2,0,0,1,.2.2v8.125a5.133,5.133,0,0,1-.274,1.695,3.99,3.99,0,0,1-.808,1.381,3.78,3.78,0,0,1-1.327.935,4.581,4.581,0,0,1-1.833.343,5.393,5.393,0,0,1-1.453-.183,4.389,4.389,0,0,1-1.173-.511,4.209,4.209,0,0,1-.913-.774,4.849,4.849,0,0,1-.58-.813.208.208,0,0,1,.069-.276l1.35-.854a.193.193,0,0,1,.272.074,5.475,5.475,0,0,0,.363.563,2.373,2.373,0,0,0,.541.533,2.278,2.278,0,0,0,.681.321,3.137,3.137,0,0,0,.871.11,2.252,2.252,0,0,0,.969-.2,2.288,2.288,0,0,0,.737-.541,2.4,2.4,0,0,0,.51-.933,3.141,3.141,0,0,0,.114-.892Zm-2.373-1.026a2.355,2.355,0,0,0,.976-.2,2.259,2.259,0,0,0,.779-.57,2.83,2.83,0,0,0,.7-1.885,2.77,2.77,0,0,0-.19-1.023,2.732,2.732,0,0,0-.513-.84,2.309,2.309,0,0,0-.779-.563,2.447,2.447,0,0,0-1.959,0,2.5,2.5,0,0,0-1.313,1.388,2.809,2.809,0,0,0-.19,1.038,2.865,2.865,0,0,0,.19,1.045,2.579,2.579,0,0,0,.527.847,2.476,2.476,0,0,0,.786.563A2.34,2.34,0,0,0,450.688,248.488Z" transform="translate(-436.758 -238.26)"/><path class="b" d="M561.693,206.053a1.258,1.258,0,0,1,.323-.9,1.284,1.284,0,0,1,1.748,0,1.275,1.275,0,0,1,.316.9,1.248,1.248,0,0,1-.316.891,1.323,1.323,0,0,1-1.762,0A1.265,1.265,0,0,1,561.693,206.053Zm.443,2.089h1.5a.209.209,0,0,1,.2.212v8.123a.209.209,0,0,1-.2.212h-1.5a.208.208,0,0,1-.2-.212v-8.123A.208.208,0,0,1,562.136,208.143Z" transform="translate(-542.553 -204.811)"/><path class="b" d="M603.806,217.178h1.359a.281.281,0,0,1,.276.287V227.7a.281.281,0,0,1-.276.287h-1.359a.281.281,0,0,1-.276-.287V217.465A.281.281,0,0,1,603.806,217.178Z" transform="translate(-580.922 -216.111)"/><path class="b" d="M642.764,250.3a4.447,4.447,0,0,1-1.769-.343,4.077,4.077,0,0,1-1.369-.942,4.279,4.279,0,0,1-.885-1.41,4.729,4.729,0,0,1-.316-1.732,4.642,4.642,0,0,1,.33-1.754,4.386,4.386,0,0,1,.906-1.417,4.311,4.311,0,0,1,1.355-.95,4.042,4.042,0,0,1,1.678-.351,4.307,4.307,0,0,1,1.692.329,3.932,3.932,0,0,1,1.341.921,4.278,4.278,0,0,1,.878,1.4,4.755,4.755,0,0,1,.316,1.753v.55a.192.192,0,0,1-.188.2h-6.25a.2.2,0,0,0-.179.258,2.436,2.436,0,0,0,2.46,1.758,2.378,2.378,0,0,0,1.39-.409,2.477,2.477,0,0,0,.8-.92.182.182,0,0,1,.256-.072l1.223.734a.2.2,0,0,1,.07.267,4.35,4.35,0,0,1-1.4,1.5A4.147,4.147,0,0,1,642.764,250.3Zm-.07-7.16a2.354,2.354,0,0,0-1.481.482,2.5,2.5,0,0,0-.774,1,.2.2,0,0,0,.173.275h4.132a.2.2,0,0,0,.178-.263,2.108,2.108,0,0,0-.738-1.045A2.438,2.438,0,0,0,642.694,243.14Z" transform="translate(-612.924 -238.251)"/></g><g transform="translate(139.294 217.586)"><g transform="translate(0 0.73)"><path class="c" d="M564.5,363.8a2.78,2.78,0,0,1-.672-.085.086.086,0,0,1-.07-.088v-.311a.069.069,0,0,1,.07-.073h.015c.2.027.509.054.627.054.177,0,.218-.05.218-.15,0-.058-.033-.1-.137-.161l-.48-.288a.638.638,0,0,1-.329-.568c0-.388.247-.6.757-.6a2.3,2.3,0,0,1,.657.088.086.086,0,0,1,.07.088v.311c0,.046-.026.073-.063.073h-.011a5.751,5.751,0,0,0-.613-.05c-.144,0-.2.023-.2.111,0,.058.041.088.114.134l.458.273a.639.639,0,0,1,.373.591C565.288,363.517,565.037,363.8,564.5,363.8Z" transform="translate(-563.742 -361.536)"/></g><g transform="translate(1.904 0.73)"><path class="c" d="M587.641,363.8a.884.884,0,0,1-.926-1v-.269a.927.927,0,1,1,1.849,0v.269A.882.882,0,0,1,587.641,363.8Zm.328-1.267c0-.311-.115-.468-.328-.468s-.332.157-.332.468v.269c0,.311.118.472.332.472s.328-.161.328-.472Z" transform="translate(-586.715 -361.536)"/></g><g transform="translate(4.178 0.015)"><path class="c" d="M614.668,356.2h-.45a.082.082,0,0,1-.078-.081v-2.788a.079.079,0,0,1,.078-.077h.45a.073.073,0,0,1,.07.077v2.788A.076.076,0,0,1,614.668,356.2Z" transform="translate(-614.14 -353.257)"/></g><g transform="translate(5.259 0.76)"><path class="c" d="M628.927,364.092h-.413a.076.076,0,0,1-.074-.077v-.092a.9.9,0,0,1-.6.2c-.535,0-.653-.388-.653-.872v-1.279a.082.082,0,0,1,.077-.081h.447a.079.079,0,0,1,.074.081v1.279c0,.269.048.357.273.357a.772.772,0,0,0,.347-.123v-1.513a.079.079,0,0,1,.074-.081h.447a.082.082,0,0,1,.077.081v2.043A.076.076,0,0,1,628.927,364.092Z" transform="translate(-627.185 -361.892)"/></g><g transform="translate(7.422 0.288)"><path class="c" d="M654.559,359.093a1.532,1.532,0,0,1-.292.031c-.406,0-.62-.111-.62-.657v-1.114l-.3-.05a.088.088,0,0,1-.077-.081v-.253a.082.082,0,0,1,.077-.081h.3v-.315a.081.081,0,0,1,.074-.077l.45-.081h.011a.064.064,0,0,1,.066.065v.407h.3a.076.076,0,0,1,.074.077v.311a.076.076,0,0,1-.074.077h-.3v1.117c0,.154.011.181.122.181h.181c.048,0,.078.023.078.065v.3A.077.077,0,0,1,654.559,359.093Z" transform="translate(-653.275 -356.417)"/></g><g transform="translate(9.153)"><path class="c" d="M674.708,353.589h-.48a.075.075,0,0,1-.074-.077v-.357a.076.076,0,0,1,.074-.077h.48a.076.076,0,0,1,.074.077v.357A.075.075,0,0,1,674.708,353.589Zm-.015,2.45h-.45a.076.076,0,0,1-.074-.077v-2.047a.076.076,0,0,1,.074-.077h.45a.076.076,0,0,1,.074.077v2.047A.076.076,0,0,1,674.693,356.039Z" transform="translate(-674.154 -353.078)"/></g><g transform="translate(10.205 0.73)"><path class="c" d="M687.768,363.8a.884.884,0,0,1-.926-1v-.269a.927.927,0,1,1,1.849,0v.269A.881.881,0,0,1,687.768,363.8Zm.328-1.267c0-.311-.115-.468-.328-.468s-.332.157-.332.468v.269c0,.311.118.472.332.472s.328-.161.328-.472Z" transform="translate(-686.842 -361.536)"/></g><g transform="translate(12.478 0.73)"><path class="c" d="M716.005,363.767h-.446a.079.079,0,0,1-.074-.081v-1.279c0-.269-.048-.357-.273-.357a.77.77,0,0,0-.347.123v1.513a.079.079,0,0,1-.074.081h-.447a.082.082,0,0,1-.077-.081v-2.043a.076.076,0,0,1,.074-.077h.413a.076.076,0,0,1,.074.077v.092a.906.906,0,0,1,.6-.2c.535,0,.653.388.653.872v1.279A.082.082,0,0,1,716.005,363.767Z" transform="translate(-714.267 -361.536)"/></g></g></g></svg>