<svg xmlns="http://www.w3.org/2000/svg" width="114" height="26" fill="none" viewBox="0 0 114 26">
    <path fill="#050404" d="M30.196 12.295v-.272c-.305-5.961-5.178-10.695-11.135-10.695-6.16 0-11.135 5.006-11.135 11.206v.647c0 .102 0 .17.033.272.474 5.756 5.247 10.252 11.102 10.252 5.957 0 10.83-4.7 11.101-10.626v-.273-.238c.034-.069.034-.17.034-.273zM18.655 7.084c-1.185-.034-2.37-.136-3.453-.375.136-.409.305-.783.508-1.158.812-1.635 1.862-2.623 2.945-2.827v4.36zm.812-4.36c1.083.204 2.132 1.158 2.945 2.827.169.375.338.75.507 1.158-1.083.239-2.267.34-3.452.375v-4.36zm-2.945.307c-.575.545-1.083 1.26-1.523 2.18-.203.408-.406.851-.575 1.328-.88-.239-1.692-.511-2.437-.886-.17-.068-.305-.17-.44-.238 1.59-1.67 3.723-2.827 6.126-3.168-.406.17-.778.443-1.15.784zm10.053 2.384c-.136.068-.305.17-.44.238-.711.34-1.557.647-2.437.886-.17-.477-.373-.92-.576-1.329-.44-.885-.981-1.634-1.523-2.18-.372-.34-.744-.613-1.117-.783 2.37.307 4.502 1.465 6.093 3.168 0-.034 0-.034 0 0zm-7.92 13.011v4.36c-1.083-.205-2.133-1.158-2.945-2.827-.17-.375-.338-.75-.508-1.158 1.083-.205 2.268-.341 3.453-.375zm.812 0c1.185.034 2.37.136 3.452.375-.135.408-.304.783-.507 1.158-.813 1.635-1.862 2.622-2.945 2.827v-4.36zm-7.717 1.567c.068-.034.17-.068.237-.136.71-.341 1.557-.648 2.437-.886.17.477.372.92.575 1.328.44.886.982 1.635 1.523 2.18.136.102.237.239.373.307-1.963-.409-3.757-1.397-5.145-2.793zm9.443 2.827c.135-.102.237-.204.372-.307.576-.545 1.083-1.26 1.523-2.18.204-.408.407-.851.576-1.328.88.238 1.692.51 2.437.886.067.034.169.068.237.136-1.354 1.362-3.148 2.35-5.145 2.793z"/>
    <path fill="#FCC604" d="M12.347 14.214c.203 0 .372-.034.508-.136.135-.069.203-.239.203-.443 0-.205-.068-.511-.237-.886-.135-.306-.338-.681-.61-1.158-.135-.204-.067-.51.17-.613l.541-.306c.204-.137.474-.035.61.17.237.374.406.715.575 1.09.203.477.372.885.44 1.192.135.443.27.715.406.885.136.17.305.239.474.239.203 0 .372.068.474.204.101.136.17.273.17.477 0 .204-.069.375-.204.511-.135.136-.305.204-.542.204-.236 0-.507-.034-.744-.136-.136-.034-.27-.102-.372-.204-.17-.102-.373-.102-.542.034-.068.068-.17.102-.27.17-.238.102-.542.17-.915.17-.135 0-.304 0-.473-.034-.17-.034-.373-.034-.542-.068h-.034c-.237-.068-.372-.272-.338-.51l.067-.443c.034-.239.271-.41.508-.375.034 0 .102 0 .136.034.203-.068.406-.068.541-.068z"/>
    <path fill="#FCC604" d="M15.325 15.031l.034-.476c0-.17.102-.307.237-.375.034 0 .068-.034.102-.068.101-.068.203-.205.338-.375.136-.204.271-.443.44-.817.271-.511.542-.92.846-1.159.305-.238.61-.374.948-.374.372 0 .677.136.88.409.203.272.406.647.61 1.158.135.34.304.647.473.885.17.239.372.375.61.375.202 0 .372.068.473.204.102.137.17.273.17.477 0 .205-.068.375-.204.511-.135.136-.304.204-.541.204-.305 0-.61-.068-.846-.238-.17-.102-.373-.068-.508.068-.068.034-.102.102-.17.136-.168.102-.371.17-.608.17-.136 0-.305-.033-.508-.068-.203-.068-.406-.136-.61-.306-.1-.068-.169-.136-.27-.239-.17-.17-.474-.17-.643 0-.17.17-.305.273-.44.341-.034.034-.102.034-.136.068-.372.068-.676-.17-.676-.51zm2.268-1.635c-.067.137-.034.307.068.443.101.102.203.239.338.34.203.171.373.24.576.24.135 0 .237-.035.27-.137.068-.102.068-.238 0-.375-.169-.443-.304-.749-.372-.92-.101-.17-.17-.272-.27-.272-.136 0-.238.102-.373.273-.101.136-.17.272-.237.408z"/>
    <path fill="#FCC604" d="M20.775 15.1l.034-.443c0-.239.169-.41.406-.41.406-.033.812-.101 1.252-.238.27-.068.542-.17.812-.306.372-.17.339-.75-.067-.851-.271-.069-.576-.103-.847-.103-.169 0-.304 0-.44.034-.236.034-.473-.136-.507-.374l-.102-.511c-.034-.239.136-.477.373-.511h.067c.17-.034.339-.034.542-.034.44 0 .812.068 1.117.17.304.102.609.239.812.375.237.136.44.272.643.374.203.103.372.17.575.17h.203c.034 0 .034 0 .068.035l.102.817c.034.205-.102.409-.305.477-.102.034-.237.102-.338.17-.237.137-.474.307-.711.511-.27.205-.542.375-.88.58-.339.204-.745.34-1.185.476-.338.102-.71.136-1.117.17-.304-.068-.541-.306-.507-.579zM26.224 15.168l-.136-2.487c0-.272.203-.477.44-.477h.542c.236 0 .44.205.44.443l.135 2.486c0 .273-.203.477-.44.477h-.541c-.203 0-.406-.204-.44-.442zM26.46 11.966c-.135.034-.27-.068-.304-.204l-.068-.273c.068 0 .136-.034.17-.034.067 0 .101-.034.135-.034-.102-.068-.17-.136-.203-.239-.068-.102-.068-.204-.068-.34 0-.239.068-.443.237-.545.17-.102.338-.17.541-.17.136 0 .271.034.406.068l-.067.477c-.102-.035-.203-.035-.305-.035-.203 0-.304.069-.304.239 0 .102.034.204.135.272.068.069.17.137.237.17.101-.033.169-.067.237-.067.135-.034.27.034.304.17.034.136-.034.272-.169.306-.135.034-.27.103-.44.137-.135 0-.304.068-.473.102z"/>
    <path fill="#050404" d="M1.89 5.233L3.968 23.77c0 .128.126.255.315.319l4.914 1.083c.44.127.378.764-.063.764L2.898 26c-.19 0-.315-.128-.378-.319L0 6.253c0-.192.126-.319.378-.446l1.134-.892c.189 0 .378.127.378.318z"/>
    <path fill="#050404" d="M9.512 23.962l-4.284-1.02c-.126-.063-.252-.127-.315-.318L2.583 1.41 2.52.456c-.063-.255.189-.51.44-.446l1.324.318h.125l4.914 1.083c.44.128.378.765-.063.765H4.724L6.74 21.668c0 .128.126.255.252.255l2.835 1.21c.378.255.126.956-.315.829zM36.031 5.233L34.015 23.77c0 .128-.126.255-.315.319l-4.913 1.083c-.44.127-.378.764.063.764l6.236.064c.19 0 .315-.127.378-.319l2.52-19.365c0-.19-.126-.318-.378-.446l-1.134-.891c-.252-.064-.378.063-.44.254z"/>
    <path fill="#050404" d="M28.41 23.962l4.283-1.02c.126-.063.252-.127.315-.318L35.4 1.348l.126-.956c0-.19-.252-.446-.567-.382l-1.322.318h-.063-.064l-4.913 1.083c-.44.128-.378.765.063.765h4.536L31.18 21.668c0 .128-.126.255-.252.255l-2.835 1.21c-.315.255-.126.956.315.829zM46.868 3.826h2.947l4.16 18.29H52.01l-.982-4.225h-5.373l-.982 4.225h-1.965l4.16-18.29zm1.444 2.2l-2.31 10.186h4.621l-2.31-10.186zM59.81 22.174h-1.965V3.826h1.964v8.161h5.546v-8.16h1.965v18.289h-1.965v-8.393H59.81v8.45zM74.946 22.174H72.98V3.826h2.947l3.177 12.097 3.236-12.097h2.946v18.29h-1.964V7.01L80.03 19.338H78.18L74.888 7.01v15.164h.058zM99.672 22.174h-.866l-.751-1.794c-.405.694-.925 1.215-1.56 1.62-.636.405-1.329.579-2.138.579-2.715 0-4.044-1.331-4.044-3.936v-2.836c0-2.604 1.329-3.936 4.044-3.936h3.236v-4.63c0-.695-.232-1.215-.636-1.563-.404-.347-1.04-.578-1.906-.578-1.676 0-2.485.694-2.485 2.141V8.92h-1.964V7.357c0-1.274.347-2.257 1.098-2.894.75-.695 1.848-1.042 3.35-1.042 1.503 0 2.658.347 3.41 1.042.75.694 1.155 1.678 1.155 2.894v14.817h.057zm-1.964-8.624h-3.235c-.809 0-1.329.173-1.618.579-.289.405-.462.926-.462 1.678v2.836c0 .695.173 1.273.462 1.679.289.405.867.578 1.618.578.809 0 1.502-.289 2.195-.926.693-.636 1.04-1.215 1.04-1.794v-4.63zM109.494 22.174h-4.507V3.826h4.507c1.444 0 2.599.347 3.351 1.042.751.695 1.155 1.678 1.155 2.894V18.18c0 1.273-.347 2.257-1.098 2.894-.809.752-1.906 1.1-3.408 1.1zm2.542-3.994V7.762c0-.579-.231-1.1-.636-1.563-.462-.463-1.04-.694-1.849-.694h-2.542v14.932h2.542c.809 0 1.387-.231 1.849-.636.405-.463.636-.984.636-1.62z"/>
</svg>
